<svg version="1.1" id="Layer_1" xmlns="http://www.w3.org/2000/svg" xmlns:xlink="http://www.w3.org/1999/xlink" x="64px" y="64px"
	 width="100%" viewBox="0 0 1024 1024" enable-background="new 0 0 1024 1024" xml:space="preserve">
<path fill="#FFFFF" opacity="1.000000" stroke="none" 
	d="
M295.659637,338.843079 
	C304.848541,342.650818 309.148895,349.404999 309.308624,358.811798 
	C309.433105,366.142365 309.115936,373.486115 309.426575,380.805695 
	C309.597565,384.834381 307.828094,386.302185 304.264526,387.264526 
	C288.207336,391.600830 272.896606,397.680878 260.362610,409.014160 
	C236.026062,431.019440 226.627762,458.128387 233.346893,490.491760 
	C233.920517,493.254669 234.652847,495.998627 235.528839,498.680389 
	C236.240204,500.858154 237.278015,502.929260 238.482925,504.991608 
	C237.433899,497.228027 237.473236,489.481812 237.589691,481.713715 
	C238.215927,439.936005 261.982849,411.009308 298.779083,396.740479 
	C318.578735,389.062622 339.222717,383.498077 357.958923,373.051819 
	C367.226044,367.884979 375.642975,361.872803 382.294769,353.797058 
	C384.355469,354.255371 384.430023,355.686096 384.466553,356.998657 
	C385.574768,396.811401 376.459869,433.307251 349.416870,463.858612 
	C331.515228,484.082733 308.763153,495.024475 282.156097,498.348297 
	C276.878937,499.007538 271.592468,499.595306 266.303711,500.154114 
	C265.692749,500.218689 265.039612,499.884186 264.297455,499.709076 
	C263.287720,496.671692 265.159485,494.519928 266.430267,492.322510 
	C273.533356,480.039673 283.861481,470.514740 293.840271,460.725464 
	C301.512604,453.198822 309.430542,445.922546 317.553864,438.237335 
	C314.902832,436.922791 313.454620,438.378448 312.080444,439.261627 
	C299.056396,447.632538 285.824615,455.711121 274.042267,465.862213 
	C258.615326,479.153351 249.764938,495.770721 247.085922,516.089233 
	C245.364212,529.147217 250.788116,540.504700 253.621307,552.514099 
	C254.112213,554.594971 254.878479,556.610779 255.919464,559.943298 
	C257.080292,552.765015 255.825974,546.924927 255.136566,541.188477 
	C253.981644,531.578552 255.099884,522.298218 257.309723,513.004578 
	C258.285217,508.901978 261.203217,508.760498 264.549164,508.563538 
	C299.285797,506.518646 330.969543,497.031342 355.550354,470.639954 
	C364.715607,460.799591 371.459503,449.315918 377.377472,437.332184 
	C379.180786,433.680511 379.695129,428.633179 384.773865,428.231781 
	C391.304932,427.715576 397.770111,428.386169 402.597382,433.908356 
	C406.280365,438.121490 407.824280,443.035339 408.304596,448.503723 
	C409.298492,459.819031 409.133362,471.116669 408.523682,482.445953 
	C408.166260,489.087433 408.661469,495.772339 408.375610,502.420624 
	C407.796204,515.896423 400.163971,523.765625 386.634888,524.180359 
	C372.824005,524.603821 358.991028,524.318237 345.167725,524.321533 
	C335.668579,524.323792 326.169403,524.264282 316.670319,524.280273 
	C310.682129,524.290405 309.471375,525.439392 309.591278,531.189270 
	C310.101990,555.677734 310.218628,580.164368 309.616760,604.653931 
	C309.341797,615.840515 300.050537,625.285095 288.824615,625.334656 
	C271.826477,625.409729 254.827377,625.398743 237.829315,625.308044 
	C226.783875,625.249146 217.616684,615.880310 217.613892,604.801270 
	C217.607819,580.636719 217.636551,556.472107 217.648911,532.307556 
	C217.653015,524.277588 217.649994,524.273560 209.371628,524.274231 
	C188.873383,524.275879 168.369202,523.980164 147.878769,524.382324 
	C131.922623,524.695557 123.054192,514.159973 123.525589,499.990051 
	C124.079391,483.343079 123.621971,466.663635 123.680351,449.998566 
	C123.727371,436.578217 132.913834,428.220795 146.309418,428.382629 
	C168.301193,428.648315 190.300079,428.299713 212.293030,428.512604 
	C216.963638,428.557800 217.735855,426.663818 217.707336,422.637756 
	C217.558624,401.640533 217.619690,380.641815 217.616714,359.643616 
	C217.614670,345.272003 225.126007,337.665497 239.407089,337.643188 
	C255.405685,337.618225 271.404419,337.670959 287.402954,337.635071 
	C290.094421,337.629028 292.714172,337.862946 295.659637,338.843079 
z"/>
<path fill="#000000" opacity="1.000000" stroke="none" 
	d="
M771.440186,568.798340 
	C767.188721,561.538330 761.218079,559.331726 752.892151,561.635010 
	C746.130432,563.505615 742.374329,568.519470 742.355591,576.167786 
	C742.315247,592.661560 742.401428,609.155579 742.438354,625.649536 
	C742.451782,631.663269 741.819641,632.342285 735.985718,632.417053 
	C732.820557,632.457642 729.654663,632.434998 726.489258,632.465759 
	C719.899414,632.529846 719.602844,632.293335 719.593628,625.882446 
	C719.571960,610.887756 719.596680,595.893066 719.594177,580.898376 
	C719.593872,579.066162 719.646240,577.225281 719.496155,575.403137 
	C718.698364,565.718872 714.337891,561.307739 705.581238,561.238281 
	C695.951416,561.161926 689.983093,566.373535 689.123535,575.587463 
	C687.587769,592.049255 688.755188,608.550598 688.396240,625.029846 
	C688.237427,632.324402 687.775146,632.861877 680.305420,632.905945 
	C663.465515,633.005371 665.720947,633.799011 665.674194,618.617615 
	C665.603882,595.792542 665.653259,572.966980 665.676941,550.141663 
	C665.683655,543.685913 666.392395,542.997253 672.803894,542.821594 
	C673.969604,542.789673 675.136047,542.781494 676.302246,542.774048 
	C685.009277,542.718262 685.009277,542.719177 687.469482,550.683838 
	C704.651245,538.348450 721.430481,536.627380 737.506409,552.991272 
	C738.803650,553.058655 739.408997,551.664001 740.340759,550.802307 
	C751.217834,540.743103 763.918213,539.035583 777.535950,543.285767 
	C788.462952,546.696167 796.050720,556.960205 796.223450,568.580383 
	C796.513184,588.069397 796.281982,607.565613 796.370789,627.058350 
	C796.389221,631.104919 794.536743,632.855469 790.646179,632.843201 
	C786.814880,632.831177 782.983215,632.844238 779.152100,632.880615 
	C774.821838,632.921753 772.883667,630.993530 772.919128,626.481506 
	C773.039734,611.154785 772.942383,595.826172 772.878052,580.498413 
	C772.862000,576.682007 773.099548,572.815308 771.440186,568.798340 
z"/>
<path fill="#000000" opacity="1.000000" stroke="none" 
	d="
M645.455200,488.882141 
	C617.641052,494.837677 596.558167,478.401520 594.761963,449.757812 
	C594.041748,438.272461 595.590881,427.170288 600.843018,416.787170 
	C611.192139,396.328003 638.741516,390.465576 656.763794,404.850006 
	C657.139099,405.149597 657.579407,405.367767 658.347900,405.847931 
	C659.623901,403.317902 659.633057,400.729340 659.632202,398.147369 
	C659.628662,387.823730 659.740479,377.497650 659.543335,367.177551 
	C659.453979,362.498779 661.210999,360.375732 665.978516,360.641357 
	C669.464294,360.835541 672.976746,360.814819 676.464783,360.640106 
	C680.812927,360.422302 682.379944,362.449738 682.363647,366.631134 
	C682.295959,383.947968 682.354980,401.265442 682.405945,418.582581 
	C682.468628,439.884064 682.494324,461.186218 682.713135,482.486267 
	C682.760864,487.135193 681.110107,489.382996 676.341492,489.082153 
	C674.351135,488.956543 672.340271,489.153961 670.350159,489.026001 
	C662.166565,488.500061 662.730286,490.356659 659.604065,481.208008 
	C654.751648,483.310303 651.078308,487.597717 645.455200,488.882141 
M618.220398,436.690979 
	C616.185608,446.100891 617.667603,454.851868 623.157959,462.835266 
	C630.151855,473.005035 650.803650,475.307343 657.542480,459.905151 
	C662.212463,449.231506 661.552368,438.445557 657.542480,427.879364 
	C655.446106,422.355255 651.064209,418.704834 645.086304,417.346649 
	C631.634033,414.290222 621.825317,421.068542 618.220398,436.690979 
z"/>
<path fill="#000000" opacity="1.000000" stroke="none" 
	d="
M458.944000,440.967194 
	C450.834961,418.719360 442.842255,396.843689 434.910614,374.945892 
	C432.651489,368.708832 433.412964,367.730988 440.162292,367.680908 
	C443.493103,367.656189 446.866028,368.005005 450.145874,367.593964 
	C455.892334,366.873840 458.493073,369.600189 460.276154,374.735138 
	C470.044037,402.864624 480.367157,430.801758 489.381927,459.191528 
	C489.765137,460.398468 490.315033,461.552429 491.262238,463.916443 
	C494.019135,455.588684 496.376678,448.387573 498.786224,441.203857 
	C506.351196,418.649780 514.027771,396.132416 521.432678,373.525970 
	C522.861755,369.163086 525.077759,367.225128 529.706604,367.593628 
	C533.679077,367.909882 537.696716,367.617584 541.692627,367.691132 
	C547.037903,367.789459 548.268127,369.433502 546.440430,374.566711 
	C541.529846,388.358673 536.466492,402.096191 531.470032,415.857605 
	C523.407471,438.063690 515.216675,460.224823 507.396240,482.515900 
	C505.713013,487.313660 502.940552,489.105194 498.214966,489.005310 
	C493.387329,488.903229 488.526978,488.646179 483.733612,489.062714 
	C477.974792,489.563171 475.304016,486.780975 473.557983,481.737366 
	C468.877991,468.218414 463.926910,454.793335 458.944000,440.967194 
z"/>
<path fill="#000000" opacity="1.000000" stroke="none" 
	d="
M519.219238,569.182617 
	C512.402405,567.722839 511.234039,565.686401 513.807068,559.807068 
	C517.271729,551.890381 523.307678,546.526855 531.398315,543.798889 
	C542.409729,540.086243 553.578003,539.709473 564.711792,543.528870 
	C576.083801,547.429932 584.027954,557.885742 584.261414,569.913940 
	C584.626709,588.737427 584.746277,607.565918 584.901855,626.392883 
	C584.949768,632.186768 584.036987,632.996948 578.234070,633.032043 
	C576.734192,633.041077 575.234253,633.018555 573.734314,633.010132 
	C565.142578,632.961853 565.142578,632.961792 562.418457,625.014832 
	C557.105286,629.174194 551.599487,632.726135 544.858582,633.726990 
	C539.377625,634.540771 533.960999,634.751892 528.511169,633.476074 
	C518.189636,631.059692 510.987213,625.146484 508.833954,614.586731 
	C506.352417,602.416870 509.817596,592.176453 520.566406,585.087646 
	C527.803894,580.314514 536.029785,579.221252 544.435791,579.003052 
	C548.932678,578.886292 553.435059,578.928772 557.934265,578.969971 
	C560.652832,578.994873 561.695129,577.797058 561.799255,575.036438 
	C562.113647,566.704468 559.297485,561.645264 552.841003,559.552368 
	C544.885193,556.973511 537.594543,558.999207 533.553101,565.611511 
	C531.161682,569.524292 528.522034,571.011719 524.126404,569.541565 
	C522.754150,569.082703 521.152039,569.311340 519.219238,569.182617 
M561.703430,603.981812 
	C562.775940,601.632568 562.637817,599.135193 562.647034,596.644165 
	C562.655029,594.463989 561.791870,593.164307 559.481567,593.086304 
	C553.340942,592.879089 547.152405,592.479797 541.096985,593.572571 
	C534.559387,594.752380 529.808533,600.995483 530.477417,606.728699 
	C531.224243,613.128967 536.131714,616.910156 543.674561,616.802368 
	C552.232910,616.680054 558.017822,612.406311 561.703430,603.981812 
z"/>
<path fill="#000000" opacity="1.000000" stroke="none" 
	d="
M772.074219,449.000000 
	C772.118958,460.823212 772.049622,472.148346 772.252197,483.468628 
	C772.325073,487.537506 770.797913,489.341949 766.725098,489.153107 
	C764.067078,489.029877 761.397339,489.186554 758.733826,489.148804 
	C751.631165,489.048218 751.177124,488.626587 750.397278,481.627960 
	C748.825378,481.115509 748.003906,482.444763 747.084167,483.184113 
	C737.917419,490.551910 727.422974,491.757568 716.391418,489.478760 
	C704.131104,486.946106 696.933594,478.827789 695.772888,466.964050 
	C694.608643,455.063965 700.380188,444.652771 711.023071,439.632324 
	C716.352844,437.118195 721.999756,435.787415 727.901123,435.687439 
	C732.895813,435.602844 737.892151,435.619629 742.887695,435.582916 
	C749.689209,435.532898 749.967773,435.237457 749.603821,428.546509 
	C749.232483,421.720093 745.955627,417.282318 739.956726,415.481689 
	C732.048645,413.108063 725.430359,415.065796 721.240723,420.960968 
	C719.845215,422.924622 719.219604,426.249084 716.276794,426.012573 
	C711.355408,425.617035 706.194580,426.019440 701.608276,423.774506 
	C699.394043,422.690643 700.010010,420.354919 700.565430,418.394196 
	C703.297119,408.751099 709.954468,402.789215 719.098389,399.667480 
	C730.284485,395.848633 741.684204,395.850952 752.901550,399.643982 
	C764.734863,403.645294 771.406982,413.993408 771.980896,429.018921 
	C772.228577,435.504272 772.051636,442.005798 772.074219,449.000000 
M745.425049,466.897034 
	C748.696899,463.420258 749.793640,459.264771 749.849060,454.543762 
	C749.893005,450.800629 748.937988,448.927795 744.794434,449.242462 
	C740.817017,449.544495 736.800415,449.310608 732.801453,449.354156 
	C728.845032,449.397247 725.270630,450.590424 722.181824,453.099518 
	C718.004395,456.492950 717.454651,461.127167 718.618042,465.827332 
	C719.741455,470.366211 723.369690,472.447906 727.922058,472.875305 
	C734.360229,473.479706 740.172607,472.098419 745.425049,466.897034 
z"/>
<path fill="#000000" opacity="1.000000" stroke="none" 
	d="
M493.995514,509.731476 
	C498.492493,509.752136 502.491150,509.817322 506.488800,509.779572 
	C510.282318,509.743774 511.981384,511.481354 511.687805,515.318054 
	C511.472076,518.137207 511.441986,520.974365 511.423096,523.804138 
	C511.375031,531.007324 511.144897,531.284546 503.710510,531.295776 
	C491.882294,531.313660 480.054047,531.283203 468.225800,531.273560 
	C461.382690,531.267944 461.370544,531.268250 461.351562,538.238159 
	C461.334778,544.402100 461.482697,550.570190 461.299744,556.728760 
	C461.189880,560.427368 462.633453,561.723389 466.302917,561.658508 
	C476.128998,561.484680 485.963409,561.737061 495.787476,561.513184 
	C499.381073,561.431335 500.820892,562.431519 500.978546,566.189819 
	C501.616364,581.394775 501.714935,581.388245 486.519073,581.381348 
	C480.521637,581.378662 474.524139,581.375305 468.526764,581.396973 
	C461.726044,581.421509 461.361176,581.764282 461.353302,588.396057 
	C461.338287,601.057312 461.200684,613.721436 461.439301,626.378235 
	C461.529327,631.153198 459.720764,633.107422 455.053741,632.953735 
	C451.060822,632.822327 447.058167,633.018799 443.061340,632.962708 
	C439.426270,632.911682 437.655060,631.095032 437.659271,627.327820 
	C437.700653,590.343811 437.697021,553.359802 437.672333,516.375793 
	C437.668976,511.348755 440.478638,509.727844 445.017456,509.737000 
	C461.177124,509.769623 477.336975,509.738190 493.995514,509.731476 
z"/>
<path fill="#000000" opacity="1.000000" stroke="none" 
	d="
M809.480225,601.891418 
	C813.253723,588.301270 824.570618,580.025940 839.539124,579.699341 
	C845.699768,579.564941 851.868225,579.525330 858.027100,579.681763 
	C861.452209,579.768738 862.726562,578.518616 862.754089,575.035889 
	C862.820374,566.647522 860.063782,561.708984 853.639282,559.601501 
	C845.911621,557.066528 838.499634,559.197021 834.445801,565.859314 
	C832.046143,569.802979 829.265198,571.073608 824.982788,569.901794 
	C823.555603,569.511230 822.029724,569.437561 820.540955,569.322937 
	C813.181519,568.756287 811.700745,566.523132 814.863953,559.655457 
	C819.552612,549.475769 827.947754,543.961914 838.767883,542.046082 
	C846.527466,540.672119 854.328064,540.699768 862.022644,542.614624 
	C876.178589,546.137634 885.142029,557.246887 885.283081,571.877380 
	C885.462830,590.532166 885.302490,609.189941 885.429016,627.845520 
	C885.450012,630.938782 884.612976,632.571533 881.308044,632.560608 
	C878.649475,632.551758 875.990540,632.894226 873.330933,632.907104 
	C865.309631,632.945923 865.309448,632.912903 863.080933,624.863220 
	C857.571289,629.549744 851.548340,632.687439 844.483521,633.941101 
	C829.801636,636.546509 816.487000,630.726440 811.191711,618.855286 
	C808.832336,613.565735 807.919312,608.046265 809.480225,601.891418 
M862.734070,602.857666 
	C862.800293,600.702087 862.919800,598.546387 862.917114,596.390869 
	C862.914612,594.412842 861.902405,593.277100 859.852661,593.290649 
	C854.041260,593.329224 848.171875,592.897217 842.433350,593.570923 
	C835.004456,594.443054 830.523254,600.651184 831.383911,607.648499 
	C832.107483,613.530762 837.167664,617.028687 844.690613,616.846802 
	C853.373657,616.636963 859.512695,612.136047 862.734070,602.857666 
z"/>
<path fill="#000000" opacity="1.000000" stroke="none" 
	d="
M625.236145,582.279053 
	C625.199585,596.721069 625.198853,610.696655 625.151611,624.672058 
	C625.127380,631.839172 624.598694,632.418945 617.659668,632.755798 
	C614.172546,632.925171 610.674194,632.974854 607.183228,632.922852 
	C603.602905,632.869507 601.686401,631.095764 601.689270,627.333801 
	C601.709412,600.878845 601.706970,574.423828 601.658020,547.968994 
	C601.651306,544.352478 603.460449,542.842346 606.855103,542.776733 
	C607.686890,542.760681 608.518738,542.751221 609.350586,542.739929 
	C621.348206,542.576599 621.348206,542.576660 623.995728,553.576965 
	C625.572205,553.449463 626.017578,552.026917 626.829956,551.061707 
	C633.160034,543.540161 641.396301,540.983398 650.918640,541.784119 
	C654.025452,542.045349 655.842163,543.700806 655.898132,546.897339 
	C655.973938,551.221130 655.979431,555.547424 655.928589,559.871643 
	C655.892212,562.965759 654.212158,564.428528 651.139160,564.196472 
	C649.817749,564.096680 648.507568,563.843018 647.193481,563.651306 
	C634.375366,561.781067 625.939392,568.763123 625.236145,582.279053 
z"/>
<path fill="#000000" opacity="1.000000" stroke="none" 
	d="
M573.723022,397.926239 
	C579.109375,397.599121 581.087158,400.068359 581.082947,404.820068 
	C581.059814,430.776886 581.074585,456.733978 581.175903,482.690552 
	C581.192261,486.881531 579.438477,488.877716 575.268616,488.830688 
	C571.443176,488.787567 567.616333,488.736572 563.791687,488.793427 
	C559.350586,488.859406 557.618774,486.730286 557.669495,482.336304 
	C557.803894,470.690552 557.692200,459.042053 557.685852,447.394623 
	C557.678101,433.251282 557.648804,419.107880 557.688599,404.964661 
	C557.704712,399.224396 558.938843,398.048462 564.775452,397.931976 
	C567.603027,397.875519 570.432678,397.922852 573.723022,397.926239 
z"/>
<path fill="#000000" opacity="1.000000" stroke="none" 
	d="
M561.308289,385.934875 
	C556.101562,381.224335 554.533569,375.789093 556.728638,369.511749 
	C558.620361,364.101746 562.773438,361.188049 568.347107,360.806122 
	C573.833069,360.430145 578.559021,362.330658 581.247070,367.489532 
	C583.992065,372.757568 583.943298,378.169678 580.431213,383.025787 
	C576.965881,387.817322 571.856506,389.003357 566.236511,387.951416 
	C564.643799,387.653290 563.160278,386.771118 561.308289,385.934875 
z"/>
</svg>