<svg width="500" height="500" viewBox="0 0 500 500" xmlns="http://www.w3.org/2000/svg">
  <rect width="100%" height="100%"/>
  
  <path d="M120 210 V160 Q120 150 130 150 H170 Q180 150 180 160 V240 L120 240 Z" fill="#003d7c"/>
  <path d="M60 210 H120 V270 H70 Q60 270 60 260 V220 Q60 210 70 210 Z" fill="#003d7c"/>
  
  <path d="M180 270 V320 Q180 330 170 330 H130 Q120 330 120 320 V270 Z" fill="#d32223"/>
  <path d="M180 210 H230 Q240 210 240 220 V260 Q240 270 230 270 H180 Z" fill="#d32223"/>

  <path d="M120 300 C120 300 130 220 220 160 C230 155 245 150 255 165 C265 185 230 220 180 260 L120 300" fill="#43a047" stroke="#ffffff" stroke-width="2"/>
  <path d="M120 300 Q170 240 240 175" fill="none" stroke="#ffffff" stroke-width="2" stroke-linecap="round"/>

  <text x="260" y="240" font-family="Arial, sans-serif" font-weight="bold" font-size="75" fill="#43a047">Vida</text>
  
  <text x="260" y="310" font-family="Arial, sans-serif" font-weight="bold" font-size="75" fill="#003d7c">Farma</text>
</svg>