<svg xmlns="http://www.w3.org/2000/svg" width="1952" height="2176" viewBox="0 0 1952 2176" version="1.1"><path d="M 787 134.995 C 765.644 137.109, 743.849 145.075, 726.359 157.160 C 717.503 163.279, 703.510 176.716, 696.846 185.500 C 683.080 203.647, 674.036 226.483, 671.104 250.500 C 670.336 256.795, 670.005 327.797, 670.003 486.730 L 670 713.961 425.750 714.267 L 181.500 714.572 173 716.702 C 156.462 720.846, 141.525 727.231, 129.500 735.295 C 123.733 739.163, 108.577 751.648, 106.494 754.246 C 105.941 754.935, 103.423 757.975, 100.899 761 C 87.048 777.596, 76.878 799.188, 72.281 821.759 L 70.500 830.500 70.500 1014.500 L 70.500 1198.500 72.293 1208 C 81.709 1257.897, 115.633 1296.714, 163.500 1312.362 C 181.551 1318.262, 168.736 1317.992, 430.235 1317.996 L 669.971 1318 670.250 1581.750 L 670.529 1845.500 672.320 1854.500 C 675.864 1872.309, 680.581 1885.130, 688.616 1898.788 C 710.611 1936.178, 749.252 1960.982, 789.859 1963.777 C 798.102 1964.344, 823.349 1964.538, 828.250 1964.071 C 828.663 1964.032, 829 1962.750, 829 1961.223 C 829 1959.695, 829.676 1957.481, 830.501 1956.302 C 831.327 1955.123, 834.521 1948.610, 837.599 1941.829 C 840.678 1935.048, 845.443 1924.550, 848.188 1918.500 C 859.378 1893.845, 877.805 1842.757, 882.996 1822 C 884.027 1817.875, 885.858 1811.125, 887.065 1807 C 896.314 1775.392, 908.513 1709.969, 911.959 1673.500 C 913.520 1656.977, 913.254 1604.064, 911.529 1588 C 908.166 1556.695, 897.732 1514.170, 880.015 1459.570 C 867.413 1420.734, 860.231 1393.187, 854.577 1362 C 850.892 1341.677, 850.408 1337.882, 849.108 1319.158 C 848.675 1312.920, 847.890 1307.520, 847.364 1307.158 C 846.838 1306.796, 844.551 1302.900, 842.282 1298.500 C 840.013 1294.100, 836.576 1287.800, 834.644 1284.500 C 832.711 1281.200, 830.089 1276.726, 828.815 1274.557 C 827.542 1272.389, 824.978 1269.014, 823.118 1267.057 C 821.258 1265.101, 816.708 1257.200, 813.007 1249.500 C 779.332 1179.438, 756.777 1098.894, 750.981 1028 C 749.815 1013.738, 749.508 969.292, 750.470 953.853 C 752.080 927.992, 758.137 888.337, 764.119 864.500 C 774.278 824.015, 787.949 787.173, 807.123 748.613 C 815.840 731.079, 817.833 727.597, 832.124 704.919 C 876.072 635.183, 940.216 572.727, 1012.500 529.292 C 1068.767 495.481, 1139.203 466.624, 1222.500 443.255 C 1231.300 440.786, 1240.975 438.032, 1244 437.133 L 1249.500 435.500 1249.797 350.500 C 1250.001 292.051, 1249.737 261.914, 1248.951 254.020 C 1245.755 221.890, 1233.724 195.367, 1212.377 173.386 C 1194.388 154.865, 1172.692 142.865, 1146.244 136.807 L 1136.500 134.575 965.500 134.414 C 871.450 134.325, 791.125 134.586, 787 134.995" stroke="none" fill="#054370" fill-rule="evenodd"/><path d="M 789 133.882 C 787.075 134.222, 864.250 134.500, 960.500 134.500 C 1056.750 134.500, 1133.475 134.196, 1131 133.824 C 1125.376 132.979, 793.791 133.035, 789 133.882 M 1720.385 240.184 C 1712.090 251.542, 1688.757 276.100, 1674 289.005 C 1660.567 300.752, 1645.819 312.891, 1639.433 317.456 C 1630.266 324.008, 1622.897 329, 1622.389 329 C 1622.164 329, 1618.047 331.628, 1613.240 334.840 C 1608.433 338.052, 1602.025 342.271, 1599 344.215 C 1593.186 347.951, 1569.115 361.502, 1562.715 364.643 C 1560.634 365.664, 1552.984 369.489, 1545.715 373.142 C 1527.331 382.381, 1505.156 393.001, 1504.254 392.997 C 1503.839 392.996, 1501.700 393.867, 1499.500 394.933 C 1493.241 397.967, 1484.965 401.519, 1479.500 403.517 C 1476.750 404.522, 1474.050 405.678, 1473.500 406.085 C 1472.950 406.492, 1468.900 408.251, 1464.500 409.993 C 1460.100 411.736, 1455.150 413.748, 1453.500 414.464 C 1451.850 415.181, 1446.900 417.233, 1442.500 419.024 C 1438.100 420.815, 1433.150 422.881, 1431.500 423.617 C 1429.850 424.352, 1423.550 426.806, 1417.500 429.069 C 1411.450 431.333, 1404.700 433.963, 1402.500 434.912 C 1400.300 435.862, 1396.475 437.251, 1394 438 C 1391.525 438.748, 1389.009 439.725, 1388.408 440.171 C 1387.808 440.617, 1384.530 441.872, 1381.124 442.960 C 1377.718 444.048, 1373.485 445.575, 1371.716 446.352 C 1369.947 447.129, 1366.925 448.314, 1365 448.984 C 1363.075 449.654, 1360.600 450.608, 1359.500 451.104 C 1357.520 451.996, 1351.410 454.167, 1333 460.517 C 1327.775 462.320, 1320.350 465.001, 1316.500 466.476 C 1312.650 467.952, 1306.350 470.226, 1302.500 471.531 C 1295.901 473.768, 1290.426 475.756, 1270.750 483.064 C 1266.213 484.749, 1259.350 487.201, 1255.500 488.512 C 1251.650 489.824, 1244 492.523, 1238.500 494.511 C 1233 496.499, 1226.025 498.947, 1223 499.950 C 1219.975 500.954, 1215.925 502.456, 1214 503.289 C 1212.075 504.122, 1207.350 506.006, 1203.500 507.476 C 1199.650 508.947, 1193.350 511.435, 1189.500 513.006 C 1175.590 518.683, 1169.419 521.112, 1165 522.651 C 1162.525 523.513, 1160.049 524.581, 1159.498 525.026 C 1158.946 525.470, 1156.246 526.722, 1153.498 527.808 C 1137.747 534.028, 1083.820 561.377, 1078.921 565.630 C 1078.053 566.383, 1077.031 567, 1076.650 567 C 1075.107 567, 1042.066 588.521, 1028.500 598.363 C 1020.761 603.977, 1006.784 615.172, 988.500 630.401 C 974.677 641.915, 937.521 678.714, 927.819 690.501 C 915.247 705.774, 898.368 727.818, 893 735.977 C 891.625 738.066, 888.700 742.425, 886.500 745.662 C 884.300 748.899, 881.968 752.437, 881.317 753.524 C 880.666 754.611, 878.110 758.875, 875.637 763 C 867.326 776.864, 851.675 807.286, 845.027 822.500 C 841.722 830.065, 833.368 852.855, 829.448 865 C 826.875 872.975, 824.422 880.400, 823.999 881.500 C 823.575 882.600, 822.675 885.525, 822 888 C 821.325 890.475, 820.431 893.400, 820.013 894.500 C 819.596 895.600, 818.234 900.775, 816.987 906 C 814.593 916.033, 814.154 918.032, 811.708 930 C 810.866 934.125, 809.880 938.850, 809.519 940.500 C 808.148 946.761, 806.153 958.942, 804.032 974 C 803.183 980.024, 802.520 985.357, 799.988 1006.500 C 793.673 1059.253, 796.434 1148.868, 805.981 1201 C 806.636 1204.575, 807.537 1209.525, 807.985 1212 C 810.221 1224.360, 811.146 1228.595, 814.502 1241.845 C 816.501 1249.735, 818.391 1256.935, 818.703 1257.845 C 819.123 1259.074, 818.837 1258.985, 817.590 1257.500 C 816.268 1255.926, 816.329 1256.353, 817.875 1259.500 C 818.956 1261.700, 821.338 1265.101, 823.170 1267.057 C 825.001 1269.014, 827.542 1272.389, 828.815 1274.557 C 830.089 1276.726, 832.711 1281.200, 834.644 1284.500 C 836.576 1287.800, 840.013 1294.100, 842.282 1298.500 C 844.551 1302.900, 846.866 1306.813, 847.426 1307.196 C 847.986 1307.579, 848.723 1311.854, 849.064 1316.696 L 849.683 1325.500 849.855 1313 C 850.278 1282.210, 855.529 1238.823, 861.896 1213.500 C 862.450 1211.300, 863.352 1207.475, 863.901 1205 C 867.506 1188.761, 879.415 1151.489, 885.467 1137.500 C 886.181 1135.850, 887.341 1132.925, 888.045 1131 C 888.749 1129.075, 892.177 1121.577, 895.663 1114.339 C 899.148 1107.100, 902 1100.835, 902 1100.417 C 902 1099.999, 902.611 1098.947, 903.357 1098.079 C 904.104 1097.210, 906.951 1092.225, 909.684 1087 C 915.878 1075.161, 918.442 1070.662, 922.111 1065.200 C 923.700 1062.835, 925 1060.631, 925 1060.303 C 925 1059.975, 926.469 1057.860, 928.264 1055.603 C 930.060 1053.346, 934.222 1047.563, 937.514 1042.750 C 946.490 1029.630, 947.609 1028.124, 954.316 1020.125 C 957.717 1016.068, 962.650 1010.104, 965.278 1006.871 C 979.563 989.296, 1021.268 949.122, 1043.004 932 C 1046.146 929.525, 1052.439 924.575, 1056.988 921 C 1061.538 917.425, 1067.789 912.447, 1070.880 909.938 C 1073.971 907.430, 1081.120 902.030, 1086.768 897.938 C 1092.415 893.847, 1100.290 888.136, 1104.268 885.247 C 1108.245 882.358, 1116.627 876.508, 1122.894 872.247 C 1129.161 867.986, 1136.181 863.150, 1138.494 861.500 C 1140.807 859.850, 1144.005 857.633, 1145.600 856.573 C 1147.195 855.514, 1151.598 852.589, 1155.384 850.073 C 1159.170 847.558, 1163.022 845.050, 1163.945 844.500 C 1164.868 843.950, 1169.420 840.985, 1174.061 837.910 C 1198.514 821.713, 1209.592 814.461, 1210.413 814.112 C 1210.915 813.899, 1216.251 810.412, 1222.270 806.362 C 1228.289 802.313, 1233.416 799, 1233.662 799 C 1233.908 799, 1236.760 797.200, 1240 795 C 1243.240 792.800, 1246.127 791, 1246.415 791 C 1246.704 791, 1250.216 788.817, 1254.220 786.148 C 1258.224 783.480, 1263.949 779.767, 1266.942 777.898 C 1274.369 773.261, 1298.806 757.520, 1302.500 754.994 C 1304.150 753.866, 1311.800 748.757, 1319.500 743.641 C 1348.613 724.295, 1362.587 714.231, 1385 696.467 C 1399.949 684.618, 1420.278 667.372, 1428.869 659.250 C 1432.637 655.688, 1434 655.014, 1431.905 657.750 C 1428.175 662.620, 1392.433 698.646, 1372.418 717.709 C 1353.897 735.350, 1342.780 746.019, 1327.991 760.349 C 1321.661 766.482, 1311.994 775.550, 1306.509 780.500 C 1301.024 785.450, 1292.485 793.325, 1287.532 798 C 1282.580 802.675, 1274.922 809.900, 1270.514 814.056 C 1266.106 818.211, 1255.301 828.111, 1246.502 836.056 C 1230.210 850.766, 1199.314 879.367, 1197.500 881.418 C 1196.950 882.040, 1190.425 888.139, 1183 894.972 C 1147.640 927.512, 1083.880 991.712, 1059.911 1018.909 C 1047.450 1033.049, 1030.693 1052.949, 1027 1057.994 C 1025.075 1060.624, 1019.648 1067.664, 1014.940 1073.638 C 1010.232 1079.612, 1004.731 1086.975, 1002.715 1090 C 1000.700 1093.025, 997.537 1097.756, 995.686 1100.513 C 993.836 1103.271, 991.237 1107.389, 989.911 1109.666 C 988.585 1111.943, 985.421 1117.337, 982.881 1121.653 C 976.245 1132.925, 968.578 1148.475, 965.985 1155.921 L 963.748 1162.343 965.624 1163.743 C 967.094 1164.840, 970.424 1165.043, 981 1164.679 C 1003.262 1163.914, 1062.377 1158.657, 1067 1157.032 C 1068.375 1156.548, 1072.425 1155.881, 1076 1155.549 C 1084.173 1154.791, 1092.777 1153.564, 1100.500 1152.055 C 1103.800 1151.411, 1109.425 1150.423, 1113 1149.862 C 1129.251 1147.309, 1147.789 1143.434, 1165 1138.993 C 1166.925 1138.496, 1169.850 1137.810, 1171.500 1137.469 C 1173.150 1137.128, 1175.400 1136.485, 1176.500 1136.039 C 1178.366 1135.282, 1180.225 1134.760, 1191.250 1131.896 C 1193.588 1131.289, 1196.625 1130.339, 1198 1129.785 C 1199.375 1129.231, 1204.100 1127.705, 1208.500 1126.393 C 1212.900 1125.082, 1217.400 1123.623, 1218.500 1123.151 C 1219.600 1122.680, 1222.750 1121.509, 1225.500 1120.549 C 1238.811 1115.903, 1244.670 1113.780, 1246.500 1112.938 C 1247.600 1112.433, 1251.650 1110.869, 1255.500 1109.463 C 1259.350 1108.057, 1263.850 1106.301, 1265.500 1105.561 C 1267.150 1104.821, 1270.975 1103.106, 1274 1101.750 C 1277.025 1100.394, 1281.300 1098.677, 1283.500 1097.935 C 1285.700 1097.193, 1288.175 1096.074, 1289 1095.448 C 1289.825 1094.822, 1292.517 1093.527, 1294.982 1092.570 C 1299.396 1090.857, 1333.552 1073.510, 1335.500 1071.992 C 1336.709 1071.050, 1343.032 1067.434, 1348.500 1064.558 C 1352.926 1062.230, 1354.186 1061.450, 1368.253 1052.326 C 1373.617 1048.847, 1378.227 1046, 1378.497 1046 C 1378.768 1046, 1382.525 1043.412, 1386.848 1040.250 C 1391.170 1037.088, 1398.260 1031.940, 1402.603 1028.812 C 1410.694 1022.985, 1412.393 1021.703, 1418.933 1016.500 C 1421.007 1014.850, 1424.233 1012.292, 1426.102 1010.815 C 1436.922 1002.263, 1444.257 995.939, 1459.500 982.017 C 1474.342 968.462, 1482.761 960.156, 1503.171 938.937 C 1507.038 934.917, 1519.137 920.750, 1525.749 912.500 C 1526.630 911.400, 1529.914 907.575, 1533.045 904 C 1540.108 895.937, 1562.230 866.702, 1569 856.484 C 1569.825 855.239, 1573.471 849.783, 1577.102 844.360 C 1585.636 831.614, 1593.180 820.029, 1594.593 817.500 C 1595.208 816.400, 1598.701 810.605, 1602.355 804.621 C 1606.010 798.638, 1609 793.415, 1609 793.015 C 1609 792.615, 1611.171 788.510, 1613.823 783.893 C 1619.505 774.006, 1640.988 730.642, 1644.039 722.902 C 1645.202 719.950, 1647.245 715.151, 1648.577 712.238 C 1649.910 709.324, 1651 706.724, 1651 706.459 C 1651 706.195, 1651.952 703.846, 1653.116 701.239 C 1656.629 693.373, 1657.706 690.684, 1659.019 686.500 C 1659.710 684.300, 1661.086 680.700, 1662.078 678.500 C 1663.824 674.626, 1665.752 669.576, 1673.532 648.500 C 1675.562 643, 1678.555 634, 1680.183 628.500 C 1681.811 623, 1684.219 615.278, 1685.534 611.341 C 1687.927 604.175, 1688.681 601.475, 1696.099 573.500 C 1701.800 552.001, 1701.642 552.644, 1704.459 539.500 C 1705.873 532.900, 1707.501 525.475, 1708.076 523 C 1708.651 520.525, 1709.544 516.250, 1710.061 513.500 C 1710.577 510.750, 1711.448 506.250, 1711.995 503.500 C 1714.295 491.950, 1716.221 480.719, 1717.911 469 C 1726.556 409.045, 1727.999 393.987, 1729.988 343 C 1730.762 323.151, 1730.660 311.184, 1729.528 289 C 1727.933 257.746, 1726.173 236.951, 1725.014 235.684 C 1724.603 235.235, 1722.520 237.260, 1720.385 240.184 M 1249.500 345.343 C 1249.500 395.099, 1249.838 435.600, 1250.250 435.345 C 1251.164 434.781, 1251.067 260.445, 1250.150 257.189 C 1249.793 255.918, 1249.500 295.587, 1249.500 345.343 M 669.477 462 C 669.477 507.375, 669.600 525.938, 669.750 503.250 C 669.900 480.563, 669.900 443.438, 669.750 420.750 C 669.600 398.063, 669.477 416.625, 669.477 462 M 669.476 626.500 C 669.476 669.400, 669.599 686.804, 669.750 665.176 C 669.900 643.547, 669.900 608.447, 669.750 587.176 C 669.599 565.904, 669.476 583.600, 669.476 626.500 M 891.861 627.250 C 880.983 639.208, 875.674 645.671, 883.442 637.500 C 891.501 629.022, 900.353 619, 899.782 619 C 899.553 619, 895.989 622.712, 891.861 627.250 M 203.500 1319.049 C 209 1319.444, 315.875 1319.812, 441 1319.866 L 668.500 1319.965 669.003 1562.232 L 669.506 1804.500 669.753 1561.250 L 670 1318 431.750 1318.165 C 300.712 1318.256, 198 1318.653, 203.500 1319.049 M 918.395 1548.500 C 918.396 1556.200, 918.553 1559.218, 918.743 1555.206 C 918.934 1551.195, 918.932 1544.895, 918.741 1541.206 C 918.549 1537.518, 918.393 1540.800, 918.395 1548.500 M 913.264 1647 C 913.231 1652.803, 913.508 1656.158, 913.882 1654.500 C 914.254 1652.850, 914.281 1648.125, 913.941 1644 L 913.323 1636.500 913.264 1647 M 669.389 1819.500 C 669.390 1826.650, 669.550 1829.444, 669.742 1825.708 C 669.935 1821.973, 669.934 1816.123, 669.739 1812.708 C 669.545 1809.294, 669.387 1812.350, 669.389 1819.500 M 791.500 1965.055 C 794.127 1966.112, 822 1966.238, 822 1965.194 C 822 1964.751, 814.688 1964.357, 805.750 1964.320 C 796.641 1964.282, 790.379 1964.605, 791.500 1965.055 M 828.786 1965.180 C 829.729 1965.554, 896.425 1965.785, 977 1965.693 C 1057.575 1965.602, 1108.200 1965.409, 1089.500 1965.266 C 1006.019 1964.623, 827.235 1964.564, 828.786 1965.180" stroke="none" fill="#2c8930" fill-rule="evenodd"/><path d="M 1715.354 717.750 C 1691.608 775.419, 1658.660 838.053, 1625.163 889.201 C 1607.030 916.890, 1580.922 951.002, 1561.059 972.959 C 1521.770 1016.389, 1476.888 1056.005, 1430.500 1088.199 C 1408.680 1103.342, 1361.841 1129.581, 1333 1142.817 C 1329.425 1144.457, 1323.350 1147.250, 1319.500 1149.022 C 1311.921 1152.510, 1292.049 1160.705, 1288 1162.012 C 1286.625 1162.456, 1280.100 1164.911, 1273.500 1167.467 C 1252.218 1175.711, 1216.252 1187.194, 1199.917 1190.961 C 1195.746 1191.922, 1189.896 1193.421, 1186.917 1194.291 C 1177.724 1196.977, 1158.065 1201.877, 1146 1204.491 C 1123.694 1209.324, 1070.978 1218.077, 1052.649 1219.992 C 1047.342 1220.546, 1038.612 1221.471, 1033.250 1222.046 C 1021.592 1223.297, 1004.688 1224.743, 993 1225.490 C 988.325 1225.789, 981.350 1226.245, 977.500 1226.505 C 973.650 1226.764, 966.225 1227.219, 961 1227.516 C 940.007 1228.710, 935.090 1229.216, 933.642 1230.333 C 931.036 1232.343, 918.719 1277.510, 914.643 1300 C 910.636 1322.110, 909.370 1332.444, 907.964 1354.486 C 906.272 1381.031, 908.432 1423.539, 913.429 1462 C 917.687 1494.780, 919.380 1543.631, 918.106 1597 C 917.635 1616.756, 915.522 1647.045, 914.110 1654.288 C 913.551 1657.155, 912.614 1665.070, 912.028 1671.877 C 908.960 1707.516, 896.603 1774.404, 887.065 1807 C 885.858 1811.125, 884.027 1817.875, 882.996 1822 C 877.631 1843.454, 859.213 1894.297, 847.495 1920 C 844.361 1926.875, 839.778 1937, 837.310 1942.500 C 834.842 1948, 831.932 1953.953, 830.843 1955.729 C 829.754 1957.505, 829.006 1960.205, 829.182 1961.729 L 829.500 1964.500 983.500 1964.500 L 1137.500 1964.500 1147 1962.217 C 1180.520 1954.160, 1209.170 1934.153, 1228.218 1905.500 C 1237.805 1891.079, 1242.545 1879.356, 1247.856 1856.929 C 1250.743 1844.740, 1251.003 1825.203, 1250.883 1630 C 1250.815 1520.275, 1250.814 1405.422, 1250.880 1374.772 L 1251 1319.044 1510.250 1318.754 L 1769.500 1318.464 1781 1315.275 C 1798.822 1310.334, 1809.806 1305.470, 1823.500 1296.453 C 1853.802 1276.502, 1873.674 1245.373, 1880.606 1207 C 1881.713 1200.870, 1881.964 1165.881, 1881.977 1015.500 C 1881.995 813.058, 1882.306 823.806, 1875.873 804.500 C 1864.358 769.939, 1840.957 742.693, 1809.469 727.181 C 1798.419 721.738, 1788.673 718.379, 1777.077 716.016 C 1768.709 714.310, 1763.313 714, 1742.042 714 L 1716.898 714 1715.354 717.750" stroke="none" fill="#cd201f" fill-rule="evenodd"/></svg>